<mxfile host="app.diagrams.net" modified="2021-04-28T01:38:32.768Z" agent="5.0 (Macintosh; Intel Mac OS X 10_15_7) AppleWebKit/537.36 (KHTML, like Gecko) Chrome/90.0.4430.93 Safari/537.36" etag="2gWZugqBG7D7Qs30h3td" version="14.5.4" type="github">
  <diagram id="40vS2KNScLZSrV7y8G0d" name="第 1 页">
    <mxGraphModel dx="983" dy="530" grid="1" gridSize="10" guides="1" tooltips="1" connect="1" arrows="1" fold="1" page="1" pageScale="1" pageWidth="827" pageHeight="1169" math="0" shadow="0">
      <root>
        <mxCell id="0" />
        <mxCell id="1" parent="0" />
        <mxCell id="892MLHBAuuPljhs9QY-_-1" value="照片" style="rounded=0;whiteSpace=wrap;html=1;" parent="1" vertex="1">
          <mxGeometry x="50" y="190" width="50" height="30" as="geometry" />
        </mxCell>
        <mxCell id="892MLHBAuuPljhs9QY-_-2" value="日期" style="rounded=0;whiteSpace=wrap;html=1;" parent="1" vertex="1">
          <mxGeometry x="140" y="130" width="50" height="30" as="geometry" />
        </mxCell>
        <mxCell id="892MLHBAuuPljhs9QY-_-3" value="2015" style="rounded=0;whiteSpace=wrap;html=1;" parent="1" vertex="1">
          <mxGeometry x="230" y="80" width="50" height="30" as="geometry" />
        </mxCell>
        <mxCell id="892MLHBAuuPljhs9QY-_-4" value="2020" style="rounded=0;whiteSpace=wrap;html=1;" parent="1" vertex="1">
          <mxGeometry x="230" y="130" width="50" height="30" as="geometry" />
        </mxCell>
        <mxCell id="892MLHBAuuPljhs9QY-_-5" value="特殊集合" style="rounded=0;whiteSpace=wrap;html=1;" parent="1" vertex="1">
          <mxGeometry x="130" y="200" width="70" height="30" as="geometry" />
        </mxCell>
        <mxCell id="892MLHBAuuPljhs9QY-_-6" value="集合1" style="rounded=0;whiteSpace=wrap;html=1;" parent="1" vertex="1">
          <mxGeometry x="230" y="180" width="50" height="30" as="geometry" />
        </mxCell>
        <mxCell id="892MLHBAuuPljhs9QY-_-7" value="集合n" style="rounded=0;whiteSpace=wrap;html=1;" parent="1" vertex="1">
          <mxGeometry x="230" y="240" width="50" height="30" as="geometry" />
        </mxCell>
        <mxCell id="892MLHBAuuPljhs9QY-_-8" value="学习用代码" style="rounded=0;whiteSpace=wrap;html=1;" parent="1" vertex="1">
          <mxGeometry x="150" y="320" width="80" height="30" as="geometry" />
        </mxCell>
        <mxCell id="892MLHBAuuPljhs9QY-_-9" value="" style="endArrow=classic;html=1;exitX=1;exitY=0.5;exitDx=0;exitDy=0;entryX=0;entryY=0.5;entryDx=0;entryDy=0;" parent="1" source="892MLHBAuuPljhs9QY-_-1" target="892MLHBAuuPljhs9QY-_-2" edge="1">
          <mxGeometry width="50" height="50" relative="1" as="geometry">
            <mxPoint x="140" y="340" as="sourcePoint" />
            <mxPoint x="190" y="290" as="targetPoint" />
          </mxGeometry>
        </mxCell>
        <mxCell id="892MLHBAuuPljhs9QY-_-10" value="" style="endArrow=classic;html=1;exitX=1;exitY=0.5;exitDx=0;exitDy=0;entryX=0;entryY=0.5;entryDx=0;entryDy=0;" parent="1" source="892MLHBAuuPljhs9QY-_-1" target="892MLHBAuuPljhs9QY-_-5" edge="1">
          <mxGeometry width="50" height="50" relative="1" as="geometry">
            <mxPoint x="110" y="215" as="sourcePoint" />
            <mxPoint x="150" y="155" as="targetPoint" />
          </mxGeometry>
        </mxCell>
        <mxCell id="892MLHBAuuPljhs9QY-_-11" value="" style="endArrow=classic;html=1;exitX=1;exitY=0.5;exitDx=0;exitDy=0;entryX=0;entryY=0.5;entryDx=0;entryDy=0;" parent="1" source="892MLHBAuuPljhs9QY-_-2" target="892MLHBAuuPljhs9QY-_-3" edge="1">
          <mxGeometry width="50" height="50" relative="1" as="geometry">
            <mxPoint x="120" y="225" as="sourcePoint" />
            <mxPoint x="160" y="165" as="targetPoint" />
          </mxGeometry>
        </mxCell>
        <mxCell id="892MLHBAuuPljhs9QY-_-12" value="" style="endArrow=classic;html=1;exitX=1;exitY=0.5;exitDx=0;exitDy=0;entryX=0;entryY=0.5;entryDx=0;entryDy=0;" parent="1" source="892MLHBAuuPljhs9QY-_-2" target="892MLHBAuuPljhs9QY-_-4" edge="1">
          <mxGeometry width="50" height="50" relative="1" as="geometry">
            <mxPoint x="130" y="235" as="sourcePoint" />
            <mxPoint x="170" y="175" as="targetPoint" />
          </mxGeometry>
        </mxCell>
        <mxCell id="892MLHBAuuPljhs9QY-_-13" value="" style="endArrow=classic;html=1;exitX=1;exitY=0.5;exitDx=0;exitDy=0;entryX=0;entryY=0.5;entryDx=0;entryDy=0;" parent="1" source="892MLHBAuuPljhs9QY-_-5" target="892MLHBAuuPljhs9QY-_-6" edge="1">
          <mxGeometry width="50" height="50" relative="1" as="geometry">
            <mxPoint x="140" y="245" as="sourcePoint" />
            <mxPoint x="180" y="185" as="targetPoint" />
          </mxGeometry>
        </mxCell>
        <mxCell id="892MLHBAuuPljhs9QY-_-14" value="" style="endArrow=classic;html=1;exitX=1;exitY=0.5;exitDx=0;exitDy=0;entryX=0;entryY=0.5;entryDx=0;entryDy=0;" parent="1" source="892MLHBAuuPljhs9QY-_-5" target="892MLHBAuuPljhs9QY-_-7" edge="1">
          <mxGeometry width="50" height="50" relative="1" as="geometry">
            <mxPoint x="150" y="255" as="sourcePoint" />
            <mxPoint x="190" y="195" as="targetPoint" />
          </mxGeometry>
        </mxCell>
        <mxCell id="892MLHBAuuPljhs9QY-_-15" value="项目" style="rounded=0;whiteSpace=wrap;html=1;" parent="1" vertex="1">
          <mxGeometry x="50" y="370" width="50" height="30" as="geometry" />
        </mxCell>
        <mxCell id="892MLHBAuuPljhs9QY-_-16" value="环境" style="rounded=0;whiteSpace=wrap;html=1;" parent="1" vertex="1">
          <mxGeometry x="50" y="320" width="50" height="30" as="geometry" />
        </mxCell>
        <mxCell id="892MLHBAuuPljhs9QY-_-17" value="文献" style="rounded=0;whiteSpace=wrap;html=1;" parent="1" vertex="1">
          <mxGeometry x="50" y="420" width="50" height="30" as="geometry" />
        </mxCell>
        <mxCell id="892MLHBAuuPljhs9QY-_-18" value="" style="endArrow=classic;html=1;exitX=1;exitY=0.5;exitDx=0;exitDy=0;entryX=0;entryY=0.5;entryDx=0;entryDy=0;" parent="1" source="892MLHBAuuPljhs9QY-_-16" target="892MLHBAuuPljhs9QY-_-8" edge="1">
          <mxGeometry width="50" height="50" relative="1" as="geometry">
            <mxPoint x="180" y="400" as="sourcePoint" />
            <mxPoint x="230" y="350" as="targetPoint" />
          </mxGeometry>
        </mxCell>
        <mxCell id="NcAI9M0D8OCStGsNLYTC-1" value="文档" style="rounded=0;whiteSpace=wrap;html=1;" parent="1" vertex="1">
          <mxGeometry x="50" y="470" width="50" height="30" as="geometry" />
        </mxCell>
        <mxCell id="NcAI9M0D8OCStGsNLYTC-2" value="项目代码" style="rounded=0;whiteSpace=wrap;html=1;" parent="1" vertex="1">
          <mxGeometry x="150" y="370" width="80" height="30" as="geometry" />
        </mxCell>
        <mxCell id="NcAI9M0D8OCStGsNLYTC-3" value="" style="endArrow=classic;html=1;exitX=1;exitY=0.5;exitDx=0;exitDy=0;entryX=0;entryY=0.5;entryDx=0;entryDy=0;" parent="1" source="892MLHBAuuPljhs9QY-_-15" target="NcAI9M0D8OCStGsNLYTC-2" edge="1">
          <mxGeometry width="50" height="50" relative="1" as="geometry">
            <mxPoint x="110" y="345" as="sourcePoint" />
            <mxPoint x="160" y="345" as="targetPoint" />
          </mxGeometry>
        </mxCell>
        <mxCell id="NcAI9M0D8OCStGsNLYTC-5" value="实验代码" style="rounded=0;whiteSpace=wrap;html=1;" parent="1" vertex="1">
          <mxGeometry x="150" y="280" width="80" height="30" as="geometry" />
        </mxCell>
        <mxCell id="evcOWA4wivG-yunKGGJW-23" value="定期报告" style="rounded=0;whiteSpace=wrap;html=1;" vertex="1" parent="1">
          <mxGeometry x="450" y="210" width="80" height="30" as="geometry" />
        </mxCell>
        <mxCell id="evcOWA4wivG-yunKGGJW-24" value="个人汇报" style="rounded=0;whiteSpace=wrap;html=1;" vertex="1" parent="1">
          <mxGeometry x="450" y="300" width="80" height="30" as="geometry" />
        </mxCell>
      </root>
    </mxGraphModel>
  </diagram>
</mxfile>
